<svg width="45" height="33" viewBox="0 0 45 33" fill="none" xmlns="http://www.w3.org/2000/svg">
<path d="M22.62 0.560001C22.14 0.800001 21.62 1.4 20.94 2.5C18.78 6.02 16.06 8.98 12.64 11.52C10.78 12.9 6.23996 15.28 4.13996 15.98C0.819962 17.08 -0.600038 20.12 0.379962 23.98C1.07996 26.76 2.37996 28.56 4.43996 29.6C5.29996 30.02 5.95996 30.2 6.61996 30.2C7.47996 30.2 7.61996 30.26 7.87996 30.78C8.33996 31.66 9.47996 32.54 10.36 32.7C11.42 32.88 17.2 31.76 18.1 31.2C18.84 30.74 19.6 29.38 19.6 28.54C19.6 28 19.62 28 20.92 28C23.32 28 27.08 28.42 29.3 28.94C30.52 29.22 31.96 29.5 32.52 29.54C33.42 29.62 33.6 29.56 34.14 29.06C35 28.26 35.4 26.78 35.4 24.38C35.4 16.12 29.52 2.84 24.9 0.68C23.7 0.100002 23.5 0.100002 22.62 0.560001ZM24.74 2.22C26.92 3.58 30.16 9.12 32.06 14.8C33.32 18.54 33.86 21.38 33.88 24.2C33.9 26.78 33.7 27.62 32.98 28.06C31.92 28.72 29.52 26.32 27.3 22.4L26.64 21.22L27.32 20.7C29.04 19.38 29.52 16.62 28.4 14.66C27.5 13.08 25.62 12.06 23.94 12.24C23.3 12.3 23.3 12.28 22.96 10.94C21.74 6.06 22.08 1.8 23.66 1.8C23.88 1.8 24.36 2 24.74 2.22ZM20.88 7.44C21.32 13.24 24.42 21.22 28.34 26.78L28.68 27.26L28 27.14C24.72 26.52 19.18 26.42 15.36 26.92C14.02 27.1 11.86 27.5 10.6 27.82C9.33996 28.14 8.25996 28.32 8.19996 28.24C5.55996 24.52 4.49996 21.92 4.35996 18.82L4.29996 17.54L5.89996 16.9C11.46 14.7 16.46 11.02 19.76 6.74C20.16 6.22 20.54 5.8 20.62 5.8C20.68 5.8 20.8 6.54 20.88 7.44ZM25.8 14.1C27.74 15.1 28.16 17.82 26.6 19.3L26 19.86L25.52 18.76C24.98 17.54 23.8 14.26 23.8 13.98C23.8 13.7 25.16 13.78 25.8 14.1ZM3.11996 21.1C3.51996 23.14 4.37996 25.2 5.63996 27.14C6.17996 27.96 6.57996 28.68 6.53996 28.72C6.49996 28.76 6.11996 28.7 5.67996 28.58C4.53996 28.26 2.77996 26.4 2.19996 24.88C1.71996 23.62 1.47996 21.64 1.67996 20.56C1.73996 20.2 1.99996 19.58 2.23996 19.2C2.67996 18.52 2.67996 18.52 2.73996 19C2.77996 19.28 2.95996 20.22 3.11996 21.1ZM17.96 28.84C17.86 29.84 17.2 30.16 13.88 30.78C11.68 31.2 10.76 31.28 10.34 31.14C9.79996 30.96 9.19996 30.3 9.19996 29.9C9.19996 29.52 15.16 28.28 17.26 28.22C18 28.2 18.02 28.22 17.96 28.84Z" fill="black"/>
<path d="M36.72 6.87998C35.34 8.35998 34.2 9.67998 34.2 9.83998C34.2 10.18 34.6 10.6 34.9 10.6C35.2 10.6 40.04 5.71998 40.28 5.19998C40.5 4.73998 40.12 4.19998 39.6 4.19998C39.42 4.19998 38.12 5.39998 36.72 6.87998Z" fill="black"/>
<path d="M41.3999 10.42C41.1199 10.52 39.8599 11.02 38.5799 11.52C36.2399 12.42 35.7199 12.84 36.2599 13.38C36.6399 13.76 37.2399 13.62 39.9999 12.54C42.6199 11.52 42.6999 11.46 42.6999 10.9C42.6999 10.22 42.2799 10.08 41.3999 10.42Z" fill="black"/>
<path d="M36.8799 16.08C36.8199 16.24 36.7999 16.54 36.8399 16.74C36.9199 17.18 37.7199 17.3 41.7599 17.5C44.7399 17.64 44.7599 17.64 44.8999 17.2C45.1599 16.4 44.6999 16.24 41.4399 16.02C37.4199 15.74 37.0199 15.74 36.8799 16.08Z" fill="black"/>
</svg>
