<svg width="19" height="17" viewBox="0 0 19 17" fill="none" xmlns="http://www.w3.org/2000/svg">
<path fill-rule="evenodd" clip-rule="evenodd" d="M2.04385 0C2.52515 0 2.91532 0.358172 2.91532 0.8V1.6C2.91532 2.04182 2.52515 2.4 2.04385 2.4C1.56255 2.4 1.17238 2.04182 1.17238 1.6V0.8C1.17238 0.358172 1.56255 0 2.04385 0ZM2.04385 4C3.00645 4 3.7868 4.71634 3.7868 5.6C3.7868 6.48366 3.00645 7.2 2.04385 7.2C1.08125 7.2 0.300903 6.48366 0.300903 5.6C0.300903 4.71634 1.08125 4 2.04385 4ZM16.8589 6.4C17.8215 6.4 18.6019 7.11634 18.6019 8C18.6019 8.88368 17.8215 9.6 16.8589 9.6C15.8963 9.6 15.116 8.88368 15.116 8C15.116 7.11634 15.8963 6.4 16.8589 6.4ZM9.01564 8.8C9.97827 8.8 10.7586 9.51632 10.7586 10.4C10.7586 11.2837 9.97827 12 9.01564 12C8.05304 12 7.27269 11.2837 7.27269 10.4C7.27269 9.51632 8.05304 8.8 9.01564 8.8ZM9.01564 13.6C9.49696 13.6 9.88711 13.9582 9.88711 14.4V16C9.88711 16.4418 9.49696 16.8 9.01564 16.8C8.53433 16.8 8.14417 16.4418 8.14417 16V14.4C8.14417 13.9582 8.53433 13.6 9.01564 13.6ZM2.04385 8.8C2.52515 8.8 2.91532 9.15816 2.91532 9.6V16C2.91532 16.4418 2.52515 16.8 2.04385 16.8C1.56255 16.8 1.17238 16.4418 1.17238 16V9.6C1.17238 9.15816 1.56255 8.8 2.04385 8.8ZM16.8589 0C17.3402 0 17.7304 0.358172 17.7304 0.8V4C17.7304 4.44182 17.3402 4.8 16.8589 4.8C16.3776 4.8 15.9874 4.44182 15.9874 4V0.8C15.9874 0.358172 16.3776 0 16.8589 0ZM16.8589 10.4C17.3402 10.4 17.7304 10.7582 17.7304 11.2V16C17.7304 16.4418 17.3402 16.8 16.8589 16.8C16.3776 16.8 15.9874 16.4418 15.9874 16V11.2C15.9874 10.7582 16.3776 10.4 16.8589 10.4ZM9.01564 0C9.49696 0 9.88711 0.358172 9.88711 0.8V6.4C9.88711 6.84183 9.49696 7.2 9.01564 7.2C8.53433 7.2 8.14417 6.84183 8.14417 6.4V0.8C8.14417 0.358172 8.53433 0 9.01564 0Z" fill="white"/>
</svg>
