<svg width="32" height="34" viewBox="0 0 32 34" fill="none" xmlns="http://www.w3.org/2000/svg">
<path d="M7.35955 0.122704C6.67645 0.213737 5.74002 0.569965 5.10669 0.973694C3.84907 1.78114 3.0936 2.9567 2.91717 4.37369C2.76336 5.59674 3.29717 7.02561 4.24264 7.93993C4.36479 8.05867 4.46431 8.17346 4.46431 8.19325C4.46431 8.217 3.90788 8.23283 2.91717 8.23283C0.863357 8.23283 0.614548 8.27241 0.406452 8.6326C0.252643 8.89779 0.202881 9.8319 0.202881 12.7253C0.202881 15.3099 0.257167 16.6715 0.365738 16.8575C0.519548 17.1148 0.73669 17.2098 1.29312 17.2573C1.50121 17.2771 1.67764 17.3008 1.68669 17.3087C1.69574 17.3166 1.72288 20.3604 1.75002 24.0691C1.77264 27.7779 1.80431 31.2214 1.81788 31.7241C1.8586 33.1886 1.9355 33.62 2.17074 33.7308C2.22502 33.7546 2.55074 33.7902 2.9036 33.81C3.71788 33.8535 24.265 33.8813 27.2417 33.8417C29.6212 33.81 29.87 33.7902 29.9922 33.6279C30.2138 33.335 30.241 32.5434 30.2953 24.2868C30.3179 20.4554 30.3496 17.3166 30.3586 17.3087C30.3676 17.3008 30.5486 17.2771 30.7567 17.2573C31.3267 17.2058 31.5755 17.0871 31.6931 16.81C31.7881 16.5923 31.8379 15.207 31.8379 12.7648C31.8379 9.84377 31.7926 8.89383 31.6388 8.6326C31.4307 8.27241 31.1819 8.23283 29.1326 8.23283C28.1691 8.23283 27.581 8.217 27.581 8.19325C27.581 8.17346 27.6941 8.0468 27.8253 7.91618C28.4134 7.34226 28.8205 6.60605 29.0376 5.73923C29.1643 5.24447 29.1688 4.36578 29.0557 3.89872C28.8115 2.92503 28.3455 2.14529 27.6081 1.48824C26.8526 0.811409 25.8891 0.348312 24.8893 0.174156C24.3193 0.0752068 23.0934 0.0752068 22.5595 0.174156C21.0169 0.459141 19.8407 1.34575 18.6012 3.14272C17.9091 4.156 17.0541 5.62445 16.4117 6.9227C16.2217 7.29872 16.0498 7.60745 16.0226 7.60745C16 7.60745 15.8236 7.29872 15.6336 6.9227C14.7424 5.12969 13.616 3.28522 12.7745 2.24424C12.3267 1.68615 11.4717 0.945984 11.0012 0.7085C10.5126 0.459141 9.88383 0.245403 9.43145 0.174156C8.9655 0.0989532 7.75312 0.0712471 7.35955 0.122704ZM8.85241 1.83656C10.1055 2.01467 10.7976 2.57276 11.9512 4.33411C12.4895 5.16135 13.9643 7.78161 13.9643 7.91618C13.9643 7.98743 9.64407 7.94389 8.89764 7.86473C7.26002 7.69057 6.70812 7.54412 6.08836 7.10477C5.55455 6.72876 5.06598 6.0638 4.96193 5.57299C4.90312 5.31176 4.90312 4.34599 4.96193 4.07288C5.02526 3.77206 5.36455 3.19418 5.6586 2.88149C5.93002 2.59255 6.42764 2.24424 6.79407 2.08591C7.45002 1.80489 8.08336 1.72573 8.85241 1.83656ZM24.1881 1.82072C24.8984 1.90384 25.5543 2.16508 26.0429 2.56089C26.4274 2.87358 26.6219 3.10314 26.8526 3.51479C27.0924 3.9383 27.1467 4.22328 27.1196 5.00303C27.0969 5.61257 27.0924 5.65215 26.9522 5.93318C26.7712 6.30524 26.4998 6.63772 26.1062 6.9702C25.7081 7.30268 25.5181 7.40559 25.0205 7.55995C24.1926 7.81327 23.2381 7.89639 20.3655 7.95576C19.3703 7.97555 18.4384 7.99534 18.2981 7.99534H18.0357L18.1262 7.79744C18.4157 7.15227 19.6507 5.00699 20.2841 4.04121C21.2386 2.59651 22.0619 1.97113 23.2155 1.82468C23.5865 1.77718 23.7945 1.77718 24.1881 1.82072ZM11.431 12.7648V15.5553H6.81669H2.2024V12.7648V9.97439H6.81669H11.431V12.7648ZM18.6691 12.7648V15.5553H16.0226H13.3762V12.7648V9.97439H16.0226H18.6691V12.7648ZM29.8429 12.7648V15.5553H25.2286H20.6143V12.7648V9.97439H25.2286H29.8429V12.7648ZM11.3767 17.3166C11.3948 17.3325 11.4174 20.6731 11.4219 24.742L11.44 32.1397H7.56764H3.69526L3.69979 25.023C3.70431 21.1125 3.71788 17.7718 3.72693 17.6056L3.74955 17.3008L4.1205 17.285C4.70407 17.2573 11.345 17.2889 11.3767 17.3166ZM18.6057 17.3087C18.6148 17.3166 18.6284 20.6533 18.6374 24.7222L18.6465 32.1199H16.0226H13.3988L13.3853 26.1432C13.3762 22.854 13.3853 19.5213 13.4034 18.7336L13.4305 17.3008L13.6884 17.285C14.005 17.2612 18.5786 17.285 18.6057 17.3087ZM28.2957 17.3166C28.3138 17.3325 28.3319 20.6731 28.341 24.742L28.3591 32.1397H24.4867H20.6143V25.1022C20.6143 21.2352 20.6279 17.8945 20.646 17.6847L20.6731 17.3008L21.0395 17.285C21.6186 17.2573 28.2641 17.2889 28.2957 17.3166Z" fill="black"/>
</svg>
