<svg width="655" height="655" viewBox="0 0 655 655" fill="none" xmlns="http://www.w3.org/2000/svg">
<rect width="655" height="655" rx="76" fill="#233D74"/>
<path d="M307.166 305.998C305.827 301.313 304.489 297.298 303.15 293.951C301.812 290.438 300.39 287.342 298.884 284.665C297.545 281.821 295.956 279.311 294.115 277.136C292.442 274.961 290.434 272.702 288.092 270.359C282.403 264.503 275.878 260.153 268.516 257.309C261.321 254.297 253.624 252.791 245.426 252.791C235.052 252.791 225.599 254.799 217.065 258.814C208.7 262.83 201.505 268.603 195.481 276.132C189.625 283.494 185.108 292.445 181.929 302.986C178.75 313.527 177.16 325.24 177.16 338.123C177.16 354.855 179.419 369.495 183.937 382.044C188.454 394.593 194.896 404.381 203.262 411.408C215.811 421.447 230.785 426.467 248.187 426.467C260.066 426.467 271.025 424.208 281.064 419.69C291.104 415.173 301.477 407.811 312.186 397.604L317.205 402.624C308.505 414.169 297.378 423.12 283.825 429.479C270.44 435.837 255.549 439.016 239.151 439.016C224.929 439.016 211.962 436.673 200.25 431.988C188.538 427.303 178.499 420.778 170.133 412.412C161.767 403.879 155.242 393.673 150.557 381.793C146.039 369.913 143.78 356.695 143.78 342.139C143.78 325.574 146.625 310.683 152.313 297.465C158.002 284.079 166.368 272.869 177.411 263.834C186.112 256.807 195.9 251.369 206.775 247.521C217.651 243.505 228.61 241.497 239.653 241.497C253.875 241.497 267.93 243.84 281.817 248.524C286.502 250.198 290.267 251.034 293.111 251.034C295.956 251.034 298.382 250.198 300.39 248.524C302.565 246.851 304.071 244.509 304.907 241.497H310.931L313.691 305.998H307.166Z" fill="#FFD000"/>
<path d="M501.272 302.484H494.245C493.074 298.301 491.903 294.62 490.731 291.441C489.728 288.262 488.473 285.418 486.967 282.908C485.628 280.231 484.122 277.889 482.449 275.881C480.776 273.706 478.852 271.447 476.677 269.104C466.638 258.563 454.925 253.293 441.54 253.293C432.672 253.293 425.478 255.635 419.956 260.32C414.602 265.005 411.925 271.363 411.925 279.395C411.925 287.258 415.188 294.62 421.713 301.48C428.238 308.34 438.947 315.87 453.838 324.068C472.912 334.442 486.632 344.565 494.998 354.437C503.531 364.308 507.798 375.1 507.798 386.812C507.798 394.174 506.292 401.035 503.28 407.393C500.269 413.751 496.169 419.272 490.982 423.957C485.796 428.642 479.605 432.323 472.41 435C465.215 437.677 457.519 439.016 449.32 439.016C443.464 439.016 437.692 438.514 432.003 437.51C426.314 436.506 420.793 434.833 415.438 432.49C412.594 431.486 410.001 430.733 407.658 430.231C405.316 429.562 403.392 429.228 401.886 429.228C399.711 429.228 397.87 430.148 396.364 431.988C394.858 433.829 394.022 436.088 393.854 438.765H387.58L379.047 378.028H385.572C392.767 395.597 400.965 408.48 410.168 416.679C419.37 424.71 430.497 428.726 443.548 428.726C454.089 428.726 462.538 425.798 468.896 419.941C475.422 414.085 478.685 406.389 478.685 396.852C478.685 393.171 478.266 389.908 477.43 387.063C476.76 384.219 475.757 381.793 474.418 379.785C471.072 374.431 465.717 368.91 458.355 363.221C451.161 357.532 442.46 351.843 432.254 346.154C424.223 341.971 417.363 337.788 411.674 333.605C405.985 329.423 401.3 325.072 397.619 320.555C394.105 316.037 391.512 311.352 389.839 306.5C388.166 301.648 387.329 296.377 387.329 290.688C387.329 274.793 392.851 262.412 403.894 253.544C408.578 249.696 413.765 246.768 419.454 244.76C425.143 242.585 430.748 241.497 436.27 241.497C441.289 241.497 446.309 242.083 451.328 243.254C456.515 244.258 461.785 245.764 467.14 247.771C469.817 248.943 472.243 249.779 474.418 250.281C476.593 250.783 478.434 251.034 479.939 251.034C484.624 251.034 487.636 247.855 488.975 241.497H494.998L501.272 302.484Z" fill="#FFD000"/>
</svg>
