<svg width="27" height="33" viewBox="0 0 27 33" fill="none" xmlns="http://www.w3.org/2000/svg">
<path fill-rule="evenodd" clip-rule="evenodd" d="M16.8867 1.86213C16.1628 0.740501 14.9163 0 13.4999 0C12.0836 0 10.837 0.740518 10.1132 1.86216C5.05095 3.35569 1.35 8.11264 1.35 13.75V18.7981C0.50571 19.8608 0 21.214 0 22.6875C0 26.1048 2.71987 28.875 6.075 28.875L9.45 28.875C9.45 29.969 9.87669 31.0182 10.6362 31.7918C11.3957 32.5654 12.4259 33 13.5 33C14.5741 33 15.6043 32.5654 16.3638 31.7918C17.1233 31.0182 17.55 29.969 17.55 28.875L20.925 28.875C24.2801 28.875 27 26.1048 27 22.6875C27 21.214 26.4943 19.8608 25.65 18.7981V13.75C25.65 8.11259 21.949 3.35561 16.8867 1.86213ZM4.05 18.7981C4.05 19.4278 3.83781 20.0384 3.44889 20.528C2.97934 21.119 2.7 21.8663 2.7 22.6875C2.7 24.586 4.21104 26.125 6.075 26.125H20.925C22.789 26.125 24.3 24.586 24.3 22.6875C24.3 21.8663 24.0207 21.119 23.5511 20.528C23.1622 20.0384 22.95 19.4278 22.95 18.7981V13.75C22.95 8.43426 18.7191 4.125 13.5 4.125C8.28091 4.125 4.05 8.43426 4.05 13.75V18.7981ZM12.5454 29.8473C12.2922 29.5894 12.15 29.2397 12.15 28.875H14.85C14.85 29.2397 14.7078 29.5894 14.4546 29.8473C14.2014 30.1051 13.858 30.25 13.5 30.25C13.142 30.25 12.7986 30.1051 12.5454 29.8473Z" fill="#4D4D4D" fill-opacity="0.89"/>
</svg>
